PathFileType	4	(X/Y/Z)	C:/Users/opensim2020/Desktop/walking_exp_matlab/subject06_walking21_straight_04.trc																																																																																																																																		
DataRate	CameraRate	NumFrames	NumMarkers	Units	OrigDataRate	OrigDataStartFrame	OrigNumFrames																																																																																																																														
100	100	6	44	mm	100	2374	104																																																																																																																														
Frame#	Time	LFHD			RFHD			LBHD			RBHD			C7			T10			CLAV			STRN			RBAK			LSHO			LUPA			LELB			LFRM			LWRA			LWRB			LFIN			RSHO			RUPA			RELB			RFRM			RWRA			RWRB			RFIN			LASI			RASI			LPSI			RPSI			LTHI			LKNE			LTIB			LANK			LHEE			LTOE			RTHI			RKNE			RTIB			RANK			RHEE			RTOE			*39			*40			*41			*42			*43		
		X1	Y1	Z1	X2	Y2	Z2	X3	Y3	Z3	X4	Y4	Z4	X5	Y5	Z5	X6	Y6	Z6	X7	Y7	Z7	X8	Y8	Z8	X9	Y9	Z9	X10	Y10	Z10	X11	Y11	Z11	X12	Y12	Z12	X13	Y13	Z13	X14	Y14	Z14	X15	Y15	Z15	X16	Y16	Z16	X17	Y17	Z17	X18	Y18	Z18	X19	Y19	Z19	X20	Y20	Z20	X21	Y21	Z21	X22	Y22	Z22	X23	Y23	Z23	X24	Y24	Z24	X25	Y25	Z25	X26	Y26	Z26	X27	Y27	Z27	X28	Y28	Z28	X29	Y29	Z29	X30	Y30	Z30	X31	Y31	Z31	X32	Y32	Z32	X33	Y33	Z33	X34	Y34	Z34	X35	Y35	Z35	X36	Y36	Z36	X37	Y37	Z37	X38	Y38	Z38	X39	Y39	Z39	X40	Y40	Z40	X41	Y41	Z41	X42	Y42	Z42	X43	Y43	Z43	X44	Y44	Z44
																																																																																																																																					
92	0.91	242.93555	1643.20544	-1507.78979	236.73866	1628.06274	-1376.4248	107.63005	1593.70422	-1515.09692	103.37529	1583.97009	-1386.14001	100.18733	1430.41797	-1457.31055	70.76584	1099.48828	-1447.33435	211.27248	1354.05676	-1457.15784	254.10297	1179.98828	-1461.88696	31.31076	1258.64087	-1370.94458	151.43883	1380.98059	-1619.2179	108.15535	1183.13794	-1687.0177	73.4259	1075.53052	-1695.48401	54.72617	928.20471	-1721.90417	85.44875	798.15387	-1689.65833	21.9592	813.6059	-1718.97473	31.43497	723.46423	-1723.02795	165.86736	1389.11633	-1295.92761	131.2215	1200.19543	-1193.23499	149.84528	1084.42627	-1170.10217	219.57069	991.78943	-1155.14136	342.96182	914.71002	-1197.97815	301.26761	882.72736	-1156.11218	375.39008	844.52295	-1158.89087	253.66118	947.06824	-1556.77234	246.33321	945.48071	-1337.22363	94.06343	964.99585	-1538.61877	94.74547	971.1181	-1369.55933	260.20743	638.46661	-1637.36707	332.6962	493.48956	-1609.53418	368.30591	242.5206	-1610.50183	422.23135	76.00802	-1576.90137	391.50562	51.0541	-1528.33142	568.50623	83.27637	-1581.3407	144.45633	616.13208	-1302.79175	116.30751	492.21628	-1327.4696	-24.64576	258.0105	-1340.48132	-108.88334	93.8961	-1393.38171	-155.43095	81.68802	-1438.39954	31.02196	35.32775	-1393.16211	141.435	1682.87683	-1451.20532	NaN	NaN	NaN	NaN	NaN	NaN	NaN	NaN	NaN	NaN	NaN	NaN
93	0.92	258.76373	1641.40356	-1507.94202	252.30731	1626.1106	-1376.62915	123.40652	1591.96521	-1515.53125	118.96191	1582.13403	-1386.61609	115.55376	1428.77148	-1457.87939	86.31936	1097.62817	-1447.94397	226.51527	1352.2146	-1457.65015	269.45767	1178.17004	-1462.21338	46.57684	1256.93518	-1371.52234	166.92909	1379.21228	-1619.93079	121.99035	1181.82764	-1687.56384	86.10784	1074.64148	-1695.85193	65.12077	927.53961	-1722.2522	93.74765	797.44189	-1690.09998	30.56575	813.82654	-1719.60828	38.33759	723.07568	-1723.11719	181.08466	1387.3396	-1296.44434	146.65237	1198.3894	-1193.80334	165.60561	1082.79346	-1170.69653	236.515	991.23578	-1155.92493	361.05273	916.76007	-1198.79846	319.76486	883.54865	-1157.48413	394.6622	846.98151	-1160.00122	270.39444	945.61169	-1557.00366	262.15051	943.9386	-1337.41113	109.97711	963.29681	-1539.74316	110.52283	968.98615	-1370.97705	277.66818	637.09845	-1638.56787	349.34674	492.14044	-1609.80798	390.47919	241.59679	-1610.54919	449.41064	76.89987	-1577.02759	419.18436	50.25928	-1528.96716	595.64337	89.71748	-1579.87646	158.90897	614.82587	-1302.87219	130.07051	490.87946	-1327.44299	-16.64329	259.8028	-1339.85754	-106.20443	98.40974	-1391.90723	-153.1989	87.76405	-1436.52844	31.20426	35.36324	-1393.22131	157.17061	1681.06384	-1451.60364	NaN	NaN	NaN	NaN	NaN	NaN	NaN	NaN	NaN	NaN	NaN	NaN
94	0.93	274.57184	1639.84448	-1508.16919	267.82706	1624.36938	-1376.81677	139.22249	1590.6001	-1516.16016	134.46857	1580.57056	-1387.23157	131.03033	1427.07275	-1458.58765	102.20439	1095.92188	-1448.75574	241.91498	1350.64636	-1458.21948	285.13269	1176.81592	-1462.79529	61.98505	1255.36353	-1372.3219	182.46187	1377.73279	-1620.62671	136.05475	1180.94006	-1688.37537	98.96076	1073.99695	-1696.51855	76.46967	927.4502	-1723.13855	102.9139	796.89557	-1690.1626	40.68408	813.72198	-1720.01965	47.1109	723.22864	-1723.29053	196.19415	1385.84827	-1297.14673	162.0652	1196.85583	-1194.69434	181.08376	1081.46741	-1171.62781	252.69695	990.73608	-1156.84363	378.30112	918.35791	-1199.5564	337.3053	884.13177	-1158.87732	412.83884	848.94006	-1161.12	287.3223	944.57452	-1557.17249	277.99817	942.55377	-1337.79138	127.79639	961.79205	-1541.31714	126.68073	967.03394	-1372.39624	296.51981	636.81012	-1638.91138	366.12796	491.15771	-1609.95642	411.23315	240.9043	-1610.66431	473.16162	77.33338	-1576.72363	443.49243	49.33725	-1529.13354	618.99872	94.46043	-1578.20361	174.10326	613.51923	-1302.89587	145.06383	489.5144	-1327.49988	-7.84967	262.07434	-1338.98535	-102.91761	103.72087	-1390.34265	-150.79474	95.13972	-1434.64929	31.46404	35.4501	-1393.27979	172.95358	1679.53833	-1451.90637	NaN	NaN	NaN	NaN	NaN	NaN	NaN	NaN	NaN	NaN	NaN	NaN
95	0.94	290.50793	1638.62524	-1508.29285	283.32663	1622.89575	-1376.96826	155.0531	1589.55054	-1516.7373	149.94119	1579.28369	-1387.8905	146.26814	1425.69189	-1459.30298	118.43739	1094.46497	-1449.49268	257.41635	1349.44299	-1458.91248	300.97919	1175.82874	-1463.34607	77.50267	1253.89648	-1373.27649	197.97079	1376.63928	-1621.32642	150.41183	1180.45361	-1689.21619	112.56844	1073.72522	-1697.34937	88.79539	927.15869	-1723.49658	113.82224	796.52728	-1690.30847	51.90214	813.98035	-1720.77954	57.2841	723.35925	-1723.4054	211.27383	1384.66089	-1297.91077	177.25906	1195.578	-1195.59961	196.16431	1080.36621	-1172.73877	268.43945	990.21637	-1157.93372	394.70572	919.43372	-1200.30017	353.95511	884.42523	-1160.23462	429.77405	850.14313	-1162.16272	304.50204	944.00989	-1557.32825	294.41888	941.50281	-1337.93335	144.95235	960.60669	-1542.552	143.27118	965.38245	-1373.78699	315.34308	636.56433	-1638.86548	383.30521	490.66522	-1610.08997	430.95865	240.42216	-1610.76282	493.13318	76.90409	-1576.28625	463.10715	48.51263	-1529.14526	638.7843	96.7418	-1576.02356	190.18785	612.33649	-1302.89014	161.03592	488.20184	-1327.55188	1.67426	264.84387	-1339.00146	-98.78498	109.69809	-1388.80212	-147.03267	103.23643	-1432.73413	31.8973	35.53546	-1393.34717	188.79314	1678.34094	-1452.25903	NaN	NaN	NaN	NaN	NaN	NaN	NaN	NaN	NaN	NaN	NaN	NaN
96	0.95	306.48663	1637.68555	-1508.41931	298.85101	1621.66394	-1377.13928	170.92175	1588.94727	-1517.37122	165.34904	1578.44128	-1388.59351	161.4689	1424.63098	-1460.16687	134.871	1093.2583	-1450.38672	272.95377	1348.59521	-1459.67566	316.98914	1175.14453	-1464.08093	93.07279	1252.55774	-1374.48462	213.52165	1375.94177	-1622.05334	165.09525	1180.29492	-1690.20569	126.7911	1073.74707	-1698.3158	102.14912	927.47675	-1724.67322	125.28996	796.09753	-1690.36841	64.29861	814.60095	-1721.82471	68.97907	723.54749	-1723.68884	226.28145	1383.70996	-1298.70984	192.13287	1194.52124	-1196.73926	211.00769	1079.4447	-1174.03943	283.48242	989.78583	-1159.02954	410.38705	919.98077	-1201.18469	369.52609	884.44366	-1161.60266	445.71783	850.72668	-1163.17712	321.9473	943.80896	-1557.61426	311.07397	940.68268	-1338.33875	162.37654	959.82648	-1543.59631	160.31798	964.09155	-1375.08252	334.29208	636.70959	-1638.73218	401.15952	490.82855	-1610.09509	449.29166	240.05927	-1611.41565	510.16949	75.96424	-1575.77222	479.10675	47.21545	-1529.34668	655.21002	96.61295	-1573.31091	207.16196	611.24017	-1302.91345	178.0666	486.99692	-1327.48157	12.589	267.86475	-1338.34717	-93.75947	116.55798	-1387.47192	-142.19569	112.48549	-1431.19812	32.49371	35.63418	-1393.37317	204.6002	1677.50525	-1452.6167	NaN	NaN	NaN	NaN	NaN	NaN	NaN	NaN	NaN	NaN	NaN	NaN
97	0.96	322.3215	1636.98767	-1508.49268	314.24649	1620.72131	-1377.31006	186.79918	1588.7749	-1517.99561	180.67654	1577.8855	-1389.37012	176.86743	1423.8219	-1460.93005	151.64906	1092.20349	-1451.36816	288.45444	1348.05078	-1460.43115	333.21597	1174.8894	-1464.79126	108.78848	1251.33472	-1375.71558	229.01973	1375.59656	-1622.86292	180.16451	1180.42029	-1691.3728	141.6499	1073.93066	-1699.49646	116.49403	927.75153	-1725.63135	139.03436	796.64246	-1690.76575	78.05237	815.04443	-1722.84741	82.2905	723.93512	-1724.1853	241.19698	1382.98315	-1299.58435	206.85271	1193.76404	-1197.88745	225.4043	1078.74048	-1175.39648	298.03943	989.1911	-1160.27612	425.14978	919.93164	-1202.06177	384.33972	884.10425	-1162.8147	460.64758	850.6427	-1164.06958	339.50909	943.82495	-1558.03479	328.06924	940.09399	-1338.99805	180.19611	959.40424	-1544.55811	177.77327	963.17914	-1376.28271	353.37787	637.13239	-1638.45129	419.74661	491.31903	-1609.93298	465.9679	239.21732	-1611.90295	523.66394	74.17188	-1575.66992	491.37427	45.89018	-1530.26123	668.58069	94.01175	-1570.03394	224.77809	610.18964	-1302.98486	196.28993	485.80014	-1327.30896	24.14181	271.64816	-1338.26245	-87.66507	124.29387	-1386.61267	-135.85562	122.75336	-1430.24597	33.35324	35.76741	-1393.38208	220.48605	1677.02478	-1452.99158	NaN	NaN	NaN	NaN	NaN	NaN	NaN	NaN	NaN	NaN	NaN	NaN
